<svg id="Layer_1" data-name="Layer 1" xmlns="http://www.w3.org/2000/svg" xmlns:xlink="http://www.w3.org/1999/xlink" width="1315.83" height="445.671" viewBox="0 0 1315.83 445.671"><defs><style>.cls-1{fill:#fff;}.cls-2{fill:url(#linear-gradient);}.cls-3{fill:url(#linear-gradient-2);}</style><linearGradient id="linear-gradient" x1="440.84" y1="319.615" x2="736.45" y2="319.615" gradientTransform="matrix(1, 0, 0, -1, 0, 455)" gradientUnits="userSpaceOnUse"><stop offset="0" stop-color="#a50305"/><stop offset="1" stop-color="#e82230"/></linearGradient><linearGradient id="linear-gradient-2" x1="440.84" y1="315.005" x2="736.45" y2="315.005" xlink:href="#linear-gradient"/></defs><path class="cls-1" d="M45.46,259.35Q17.181,251.15,0,238l20.1-44.5q16.42,12,39,19.34a146.344,146.344,0,0,0,45.23,7.29q25.17,0,37.21-7.47t12-19.88a19,19,0,0,0-7.11-15.14A53.819,53.819,0,0,0,128.27,168q-11.13-3.649-30.1-8Q69,153,50.38,146.08a77.714,77.714,0,0,1-31.92-22.25Q5.14,108.5,5.15,83a71.127,71.127,0,0,1,12-40.31Q29.23,24.6,53.48,14T112.76,3.44a196.442,196.442,0,0,1,47.79,5.84q23.34,5.84,40.86,16.79L183.17,70.93Q147.79,50.88,112.4,50.87q-24.81,0-36.66,8T63.88,80.05q0,13.14,13.68,19.52t41.77,12.59q29.17,6.93,47.79,13.86A79.1,79.1,0,0,1,199,147.91q13.309,15,13.31,40.49a69.673,69.673,0,0,1-12.22,39.94Q187.9,246.4,163.47,257T104,267.56A208.962,208.962,0,0,1,45.46,259.35Z" transform="translate(0 -3.44)"/><path class="cls-1" d="M220.36,7.83V56h81.73V263.16h59.09V56H409.8a187.55,187.55,0,0,1,33.11-45.46V7.83Z" transform="translate(0 -3.44)"/><path class="cls-1" d="M928.77,181.09q25.181-10.931,38.86-31.56t13.71-49.07q0-28.42-13.52-49.22T929.34,19.11q-25-11.28-58.9-11.28H759.88v41a173.652,173.652,0,0,1,0,174v40.33H819V192h54.35l49.25,71.13h63.47Zm-21.15-47.78Q893.78,145,867.14,145H819V56h48.16q26.6,0,40.48,11.47c9.27,7.67,13.86,18.69,13.86,33C921.48,114.59,916.89,125.53,907.62,133.31Z" transform="translate(0 -3.44)"/><path class="cls-1" d="M1260.38,263.18,1260,110l-75.15,126.21h-26.63l-74.78-122.93v149.9H1028V7.82h48.88l95.58,158.69L1266.59,7.82h48.51l.73,255.36Z" transform="translate(0 -3.44)"/><path class="cls-1" d="M293.15,349.76q12,9.86,12.05,27.45t-12.14,27.44q-12.15,9.86-33,9.85h-28.3V448H218V340h42.07Q281.1,339.921,293.15,349.76Zm-10,46.57q8.329-6.69,8.32-19.12t-8.22-19.12q-8.22-6.7-23.91-6.7H231.77V403H259.3q15.49,0,23.81-6.67Z" transform="translate(0 -3.44)"/><path class="cls-1" d="M336,339.92h13.77v96.57H410V448H336Z" transform="translate(0 -3.44)"/><path class="cls-1" d="M499.3,420H438.68l-12.62,28H412.29L462.2,340h13.58l49.91,108H511.92Zm-5-11.09-25.25-56-25.43,56Z" transform="translate(0 -3.44)"/><path class="cls-1" d="M558.39,351.39H520.33V339.92h89.88v11.47H572.16V448H558.39Z" transform="translate(0 -3.44)"/><path class="cls-1" d="M644.82,351.39v40.16h55.84v11.67H644.82V448H631.06V340h76.3v11.47Z" transform="translate(0 -3.44)"/><path class="cls-1" d="M750.1,441.94a53.335,53.335,0,0,1-20.85-19.79,54.64,54.64,0,0,1,18.581-75q1.119-.675,2.269-1.295a64.261,64.261,0,0,1,59.19-.1A53.259,53.259,0,0,1,830,365.64a56.581,56.581,0,0,1,0,56.51,53.492,53.492,0,0,1-20.74,19.79,64.657,64.657,0,0,1-59.19,0Zm52.11-10.33a41.086,41.086,0,0,0,15.87-15.49,45.72,45.72,0,0,0,0-44.36,41.231,41.231,0,0,0-15.87-15.49,48,48,0,0,0-45.13,0,41.154,41.154,0,0,0-15.87,15.49,45.72,45.72,0,0,0,0,44.36,41,41,0,0,0,15.87,15.49,47.893,47.893,0,0,0,45.13,0Z" transform="translate(0 -3.44)"/><path class="cls-1" d="M940.85,448l-24.48-34c-3.31.25-5.8.38-7.45.38H880.61V448H866.84V340h42.08q21,0,33.08,9.84t12,27.45q0,12.44-6.41,21.23t-18.26,12.81L955.77,448ZM932,396.33q8.31-6.69,8.32-19.12t-8.23-19.12q-8.22-6.7-23.9-6.7H880.61V403h27.54Q923.65,403,932,396.33Z" transform="translate(0 -3.44)"/><path class="cls-1" d="M1088.29,448V364.78L1047,434.39h-6.31l-41.3-68.47v82h-13.2v-108H998l45.89,77.45,45.71-77.45h11.86l.18,108Z" transform="translate(0 -3.44)"/><path class="cls-2" d="M584.72,252.53c7.51-21,8-38.54,1.31-52.06-3.9-8-9.57-12.84-15.54-18-6.44-5.55-13.07-11.3-18-21.13A65.931,65.931,0,0,1,546,133.65a83.22,83.22,0,0,1,4-27c4.08-12.92,7.15-13.31,11.53-27,3.09-9.66,5.32-16.65,4.18-25.65-1.65-13-9.23-21.68-13.72-26.84A68.565,68.565,0,0,0,523.4,7.75C473.5,32,441.28,80.12,441.93,130.25c.93,70.56,62.21,128.63,138.32,132.77.3-.66.63-1.43,1-2.28C582.49,257.93,584.16,254.07,584.72,252.53Z" transform="translate(0 -3.44)"/><path class="cls-3" d="M672.26,16.77a42.074,42.074,0,0,1,.9,19.28A44.382,44.382,0,0,1,664,55.23c-6.38,8-12.59,10.87-21.13,14.78-3.66,1.65-7.82,3.55-12.62,6.14C622.08,80.63,605,90,592.4,107.1c-4.11,5.66-11.79,16.15-13.93,31.91-.52,3.84-1.8,17.47,3.44,31.06a88.12,88.12,0,0,0,9.36,17.9A82.332,82.332,0,0,1,596,196c7,14.33,4.66,33.8-6.91,57.93-.86,1.81-3,6.17-4.52,9.22l4,.07h2.34c81.22-1.06,146.46-62.48,145.48-136.87C735.82,82,711.12,41.15,672.26,16.77Z" transform="translate(0 -3.44)"/></svg>